<!DOCTYPE svg PUBLIC "-//W3C//DTD SVG 1.1//EN" "http://www.w3.org/Graphics/SVG/1.1/DTD/svg11.dtd">
<!-- Uploaded to: SVG Repo, www.svgrepo.com, Transformed by: SVG Repo Mixer Tools -->
<svg fill="#615C52" width="103px" height="103px" viewBox="0 0 32.00 32.00" xmlns="http://www.w3.org/2000/svg" stroke="#615C52" stroke-width="0.00032">
<g id="SVGRepo_bgCarrier" stroke-width="0"/>
<g id="SVGRepo_tracerCarrier" stroke-linecap="round" stroke-linejoin="round" stroke="#CCCCCC" stroke-width="0.384"/>
<g id="SVGRepo_iconCarrier"> <path d="M2 12.906c-1.104 0-2 0.896-2 2v2.172c0 2.667 4 2.667 4 0v-2.172c0-1.104-0.896-2-2-2zM30 12.906c-1.104 0-2 0.896-2 2v2.172c0 2.667 4 2.667 4 0v-2.172c0-1.104-0.896-2-2-2zM8.906 19.453c-1.104 0-2 0.896-2 2v2.172c0 2.667 4 2.667 4 0v-2.156c0-1.109-0.891-2-2-2zM8.906 6.359c-1.104 0-2 0.896-2 2v7.146c0 2.667 4 2.667 4 0v-7.156c0-1.109-0.891-2-2-2zM23.094 6.359c-1.109 0-2 0.896-2 2v2.188c0 2.667 4 2.667 4 0v-2.188c0-1.104-0.896-2-2-2zM16 0c-1.104 0-2 0.896-2 2v2.172c0 2.667 4 2.667 4 0v-2.172c0-1.104-0.896-2-2-2zM16 25.813c-1.104 0-2 0.896-2 2v2.188c-0.010 2.667 3.99 2.682 4 0.016v-2.188c0-1.094-0.896-2-2-2zM23.094 14.531c-1.109 0-2 0.906-2 2v7.109c0 2.667 4 2.667 4 0v-7.109c0-1.104-0.896-2-2-2zM16 8.172c-1.104 0-2 0.906-2 2v11.641c0 2.667 4 2.667 4 0v-11.625c0-1.109-0.896-2-2-2z"/> </g>
</svg>