<?xml version="1.0" encoding="utf-8"?>
<!-- Generator: Adobe Illustrator 25.2.1, SVG Export Plug-In . SVG Version: 6.00 Build 0)  -->
<svg version="1.1" id="Capa_1" xmlns="http://www.w3.org/2000/svg" xmlns:xlink="http://www.w3.org/1999/xlink" x="0px" y="0px"
	 viewBox="0 0 393 464" style="enable-background:new 0 0 393 464;" xml:space="preserve">
<style type="text/css">
	.st0{clip-path:url(#SVGID_1_);fill:none;stroke:#2C3030;stroke-width:4;stroke-miterlimit:10;}
	.st1{fill:none;stroke:#303031;stroke-width:2.1227;stroke-linecap:round;stroke-miterlimit:10;}
	.st2{fill:none;stroke:#2C3030;stroke-width:3;stroke-linecap:round;stroke-miterlimit:10;}
	
		.st3{fill:none;stroke:#020203;stroke-width:1.0614;stroke-linecap:round;stroke-linejoin:round;stroke-miterlimit:10;stroke-dasharray:0.4245,3.1841;}
	.st4{fill:none;stroke:#2C3030;stroke-width:2;stroke-miterlimit:10;}
	.st5{fill:#A9B918;}
	.st6{fill:#020203;}
</style>
<g>
	<g>
		<defs>
			<rect id="SVGID_3_" x="-44.6" y="-59.6" width="500" height="500"/>
		</defs>
		<clipPath id="SVGID_1_">
			<use xlink:href="#SVGID_3_"  style="overflow:visible;"/>
		</clipPath>
		<path class="st0" d="M136.9,553.6l11.2-41.6c0.9-13.7-9.5-25.4-23.1-26.3l-24.5-1.6c-14-0.9-24.6-13-23.6-26.9l-6-39.4
			c0.5-8-5.5-14.9-13.5-15.4l-12.5-0.8c-8.1-0.5-12.8-9.3-8.9-16.3l30.3-54c4.3-7.7,6.5-16.5,6.2-25.4
			c-1.1-33,8.7-120.8,142.6-123.5c0,0,142.8-4.4,132.5,151.6c0,0,1.5,41.7-29.8,70.5c0,0-37.3,49.3-19.3,122.4l8.4,30.9"/>
	</g>
	<g>
		<path class="st1" d="M245.8,326c0,0,13.4,3.2,15.9-6.6"/>
		<path class="st1" d="M243.7,225c0,0,10.1-6.5,15.3,1.2"/>
		<g>
			<g>
				<g>
					<path class="st2" d="M167.2,208.4L167.2,208.4c0-4.4,4.4-7.9,9.8-7.9h0c13,0,23.6,8.6,23.6,19.2v8.6"/>
					<path class="st2" d="M156.6,244.8c0,0-35.2-9.7-6.5-33.1c5.1-4.2,17.1-3.3,27.7,7.3"/>
					<path class="st2" d="M127.8,258.9c0,0-14.5-20.3,11.1-26.3"/>
					<path class="st2" d="M158.3,266.1c0,0-24.1-20.3-34.6-3.2c-9.6,15.7,5.6,24.3,5.6,24.3"/>
					<path class="st2" d="M139.4,310.2c0,0-24.7-10.4-4.6-28.5"/>
					<path class="st2" d="M158.3,298.5c0,0-29.6,6.7-14.3,28.3c3.7,5.3,16.5,9.9,29.9,1.2"/>
					<path class="st2" d="M165.5,331.9c0,0,5.7,15.8,20,12.3c14.4-3.5,15.1-12.3,15.1-12.3v-14.2"/>
				</g>
				<g>
					<path class="st2" d="M242.3,208.4L242.3,208.4c0-4.4-4.4-7.9-9.8-7.9h0c-13,0-23.6,8.6-23.6,19.2v8.6"/>
					<path class="st2" d="M252.9,244.8c0,0,35.2-9.7,6.5-33.1c-5.1-4.2-17.1-3.3-27.7,7.3"/>
					<path class="st2" d="M281.7,258.9c0,0,14.5-20.3-11.1-26.3"/>
					<path class="st2" d="M251.2,266.1c0,0,24.1-20.3,34.6-3.2c9.6,15.7-5.6,24.3-5.6,24.3"/>
					<path class="st2" d="M270.1,310.2c0,0,24.7-10.4,4.6-28.5"/>
					<path class="st2" d="M251.2,298.5c0,0,29.6,6.7,14.3,28.3c-3.7,5.3-16.5,9.9-29.9,1.2"/>
					<path class="st2" d="M244,331.9c0,0-5.7,15.8-20,12.3c-14.4-3.5-15.1-12.3-15.1-12.3v-14.2"/>
				</g>
			</g>
			<g>
				<path class="st1" d="M149.1,225.5c0,0-3.5,10.4,10.2,11.5"/>
				<path class="st1" d="M146.4,318.7c0,0,3.6,14.7,20.1,7.2"/>
				<path class="st1" d="M263.3,274.2c0,0-10.2,7.4-0.3,16.9"/>
				<path class="st1" d="M146.6,270.4c0,0,8.2,8,2.5,17.5"/>
				<path class="st1" d="M175.5,305.5c0,0,13.5,0.4,11.8,12.8"/>
				<path class="st1" d="M174.6,253.3c0,0,12-9.4,4.3-20.6"/>
				<path class="st3" d="M168.9,252.1c0,0,12-9.4,4.3-20.6"/>
				<path class="st1" d="M234.3,235c0,0-7.9,18.1,6.6,23"/>
				<path class="st1" d="M223.5,316.8c0,0-2.7-16.8,12.1-16.8"/>
				<path class="st3" d="M228.3,320.7c0,0-2.7-16.8,12.1-16.8"/>
			</g>
		</g>
	</g>
	<g>
		<g>
			<g>
				<path class="st4" d="M219,267.6v8.2c0,3.9-3.1,7-7,7l0,0c-3.9,0-7-3.1-7-7V50.5"/>
				<path class="st4" d="M190.5,267.6v8.2c0,3.9,3.1,7,7,7h0c3.9,0,7-3.1,7-7V49.5"/>
				<g>
					
						<ellipse transform="matrix(0.7071 -0.7071 0.7071 0.7071 29.3213 145.2222)" class="st5" cx="190" cy="37.2" rx="9" ry="21.4"/>
					<line class="st4" x1="183.7" y1="30.8" x2="204.9" y2="53.5"/>
					<line class="st4" x1="192.7" y1="33.6" x2="193.7" y2="41.5"/>
				</g>
				<g>
					
						<ellipse transform="matrix(0.7071 -0.7071 0.7071 0.7071 37.966 166.0925)" class="st5" cx="219.5" cy="37.2" rx="21.4" ry="9"/>
					<line class="st4" x1="225.9" y1="30.8" x2="204.7" y2="53.5"/>
					<line class="st4" x1="216.9" y1="33.6" x2="215.9" y2="41.5"/>
				</g>
				<g>
					<g>
						
							<ellipse transform="matrix(0.7071 -0.7071 0.7071 0.7071 -34.2211 210.3992)" class="st5" cx="236.9" cy="146.5" rx="46.5" ry="19.4"/>
						<line class="st4" x1="256.2" y1="126.2" x2="204.4" y2="180.2"/>
						<line class="st4" x1="226.3" y1="134.8" x2="230.1" y2="153.3"/>
					</g>
					<line class="st4" x1="221.3" y1="162.6" x2="239.7" y2="160.3"/>
				</g>
				<g>
					<g>
						
							<ellipse transform="matrix(0.7071 -0.7071 0.7071 0.7071 1.881 186.0177)" class="st5" cx="225.5" cy="90.7" rx="29.6" ry="12.4"/>
						<line class="st4" x1="235.9" y1="79.9" x2="204.1" y2="112.6"/>
						<line class="st4" x1="223.5" y1="82.8" x2="220.3" y2="96.3"/>
					</g>
					<line class="st4" x1="216.4" y1="100" x2="223.5" y2="100"/>
				</g>
				<g>
					<g>
						<path class="st5" d="M192.7,82c8.2,8.2,12.3,19,12.2,29.7c-10.7,0.1-21.5-4-29.7-12.2c-8.2-8.2-12.3-19-12.2-29.7
							C173.7,69.7,184.5,73.8,192.7,82z"/>
						<line class="st4" x1="173.1" y1="79.9" x2="204.9" y2="112.6"/>
						<line class="st4" x1="185.6" y1="82.8" x2="188.7" y2="96.3"/>
					</g>
					<line class="st4" x1="193.7" y1="101" x2="184.3" y2="99.8"/>
				</g>
				<g>
					<g>
						
							<ellipse transform="matrix(0.7071 -0.7071 0.7071 0.7071 -53.0524 164.9359)" class="st5" cx="172.6" cy="146.5" rx="19.4" ry="46.5"/>
						<line class="st4" x1="153.1" y1="126.2" x2="204.9" y2="180.2"/>
						<line class="st4" x1="175" y1="134.8" x2="179.3" y2="153.3"/>
					</g>
					<line class="st4" x1="188.5" y1="163.5" x2="171" y2="161.6"/>
				</g>
			</g>
			<circle class="st6" cx="190.5" cy="268.6" r="2.7"/>
			<path class="st6" d="M221.7,268.6c0,1.5-1.2,2.7-2.7,2.7c-1.5,0-2.7-1.2-2.7-2.7c0-1.5,1.2-2.7,2.7-2.7
				C220.5,265.8,221.7,267,221.7,268.6z"/>
		</g>
	</g>
</g>
</svg>
